<svg xmlns="http://www.w3.org/2000/svg" xmlns:xlink="http://www.w3.org/1999/xlink"><symbol id="adaptive-logo--desktop" viewBox="0 0 148.1 72.7">
  <g id="Layer_2"><path d="M143.2 31.4c-1.5 1.1-3.1 1.9-4.7 2.8 0-1.7-.1-3.5-.6-5.1.1-.3.1-.7.1-1 .4-3 .7-7.1-2-9.2-.3-.3-1.2 0-1.9.3-.2-.2-.3-.3-.5-.4-.1-.2-.2-.5-.2-.7 0-.1-.2-.2-.4-.2.3-.4.3-.8-.4-1.1-.4-.2-.8-.3-1.1-.4-.1-.1-.1-.1-.2-.1-.9-.3-1.9-.5-2.9-.7.1-.3.4-.8.6-1 .1-.2.3-.3.4-.4l.2-.2s.1 0 .1-.1l.1-.1c.4-.3.8-.9.2-1.2-.6-.3-1.5-.1-2 .2-.9.7-1.6 1.4-2.1 2.4-2-.2-4-.2-6.1-.1.1-.1.1-.2.1-.3.2-.6-.9-.5-1.2-.5-1.6.2-3.1.4-4.7.6 1.4-3.8 3.1-8.6 1-12.3-1.2-2.1-3.9-2.6-6.1-2.7-2.4-.1-4.9.5-7 1.6-4.8 2.6-7.1 7.7-8.2 13.1-.5-.7-2.3-.4-2.6.5-.1.3-.2.6-.3 1-.2.2-.3.4-.3.6v.2h-.2c0-.1 0-.2.1-.3.1-.1.2-.2.3-.4.6-2.3 1.2-4.6 1.9-6.8.3-.8-2.5-.4-2.8.4-.4 1.2-.8 2.4-1.1 3.6-.2.1-.4.2-.4.3v.1c-.1-.1-.3-.2-.5-.2v-1c0-.4-2.8 0-2.8.8V15c-.2.1-.3.2-.5.3l-.2.2c-.1.1-.1.2-.1.2v.1l-.1.1c-.1.1-.2.3 0 .5s.5.2.7.2h.1v.5h-.7l-.4-.1c0-.4-.7-.5-1.4-.3v-.1c-.1-.6-.2-1.2-.2-1.8.2-.1.5-.2.7-.3.2-.1.3-.2.3-.4v-.2c0-.2-.4-.2-.5-.2h-.6c-.1-1.3-.1-2.6-.1-3.9 0-.8-2.8-.3-2.8.8 0 1.8 0 3.6.2 5.3h-.3v-1.5c0-1-1.3-1.2-2.1-.8.3-.3.5-.6.4-1-.4-1.4-.8-2.8-1-4.3-.2-1.4-3-.7-2.8.8.2 1.5.6 2.9 1 4.3.2.8 1.3.9 2.1.5-.2.2-.4.5-.4.8v.6c-.3-.3-.5-.3-.9-.3-1.1 0-1.7.9-1.4 1.5-.2 0-.3-.1-.5-.1-.4-1.2-.7-2.5-.7-3.8 0-.9-1.3-1-2.1-.7v-.2c-.4-.8-.6-1.7-.8-2.5-.3-1.3-3.2-.6-2.8.8.2.6.3 1.3.5 1.9h-.1c-.3.1-.6.2-.9.4-.8.1-1.8.6-1.8 1.2.1.5.1 1 .2 1.4-.4.1-1 .1-1.5.2-.3-.8-.5-1.6-.6-2.4-.1-.9-1.6-.9-2.3-.3-.8-2.1-1.8-4-3.1-5.8-2.7-3.4-7.2-4.6-11.3-3.7-1.9.4-3.7 1.2-5 2.6-1.2 1.4-1.4 3.1-1.2 4.8.2 1.5.6 4 1.6 6-.4 0-.7 0-.9.1-.3.1-.6.2-.8.4-1.9 0-3.9 0-5.8-.1-4.2-.2-8.3-.9-12.5-.7-.9 0-1.5.7-1.5 1.3-1 .5-1.7 1.3-2.1 2.3-1.7-1.1-3.5-2.3-5.3-3.2-.7-.4-3.3.7-2.3 1.2 1.8.9 3.6 2.1 5.3 3.2.5.3 1.3.1 1.8-.1 0 0 .1 0 .2-.1-.3 1.4-.2 3.1.2 4.5 0 .1.1.2.2.3v1.2c-.4.2-.7.5-.8.8-.2 1.4-.3 2.8-.3 4.2-.3.2-.5.5-.5.8-.2 3.3 0 6.7.5 10 .2 2.7.7 5.3 1.2 8 .1.4.1.8.2 1.3-.3 1.1-.4 2.4-.2 3.5-.9.2-1.7.9-1.2 1.6.8 1.2 1.6 2 2.6 2.6-.6-.1-1.4.1-1.9.6-.8.8-1.7 1.5-2.5 2.3-.4.4-.3.9.3 1.1.7.2 1.5-.1 2-.5.8-.8 1.7-1.5 2.5-2.3.2-.2.3-.5.2-.7 3.2 1.7 7.2 1.3 11.1.9-.9 1.6-1.5 3.3-2.2 5-.3.7 2.5.4 2.8-.4.6-1.7 1.2-3.3 2.1-4.9 3.7.1 7.5.1 11.2.1.1.2.4.3.7.3 3.3.3 6.5-.1 9.7-.7 4.8-.2 9.6-.5 14.4-.8 7.5-.2 15.1-.3 22.6-.3l.3.3c.3.3.6.3 1 .3h.2c.7 0 1.4.1 2.1.1.2 0 .3.1.6 0 .8.1 1.6.1 2.3.2.2.2.5.3.8.4 3.8.3 7.6.5 11.4.7.1.2.5.3.8.3 7.1.1 15.3 2.8 21.6-1.7.5-.4.3-.9-.3-1h-.3c1.2-2.8 2.2-5.6 2.9-8.6.4-.2.6-.5.6-.9 0-1.2.2-2.4.4-3.6.2-.9.3-1.8.4-2.7.4-2.2.8-4.4 1-6.5 2.3-1.1 4.5-2.3 6.6-3.8 1.6-1.2-.8-1.9-1.8-1.2zm-55.4-15l-.1.1c.1-.3.1-.6.2-.9h.1c0 .2-.1.5-.2.8z"/><path d="M63.3 12.6c.1.2.6.2.8.2.4 0 .8-.1 1.1-.2.4-.2 1.1-.6.8-1.1-.4-.6-.6-1.2-1-1.8-.1-.2-.6-.2-.8-.2-.4 0-.8.1-1.1.2-.4.2-1.1.6-.8 1.1.3.6.6 1.3 1 1.8zM20.7 10.9c.2.6 1.1.6 1.6.5.5-.1 1.4-.6 1.2-1.3-.2-.6-.4-1.3-.9-1.8s-1.3-.4-1.9-.2c-.4.2-1.2.8-.7 1.3.4.6.5.9.7 1.5zM30.7 13.9c.8 0 3.1-1.3 1.2-1.3-.9 0-3.1 1.3-1.2 1.3zM122.6 12.3c.3.1.7 0 1.1-.1.3-.1.7-.2.9-.5.4-.4.7-.7 1-1.2.1-.2.2-.4 0-.6-.2-.2-.5-.2-.8-.3-.4 0-.8.1-1.1.2-.3.1-.6.3-.8.6-.1.2-.2.4-.4.5l-.2.2c-.2.2-.3.4-.3.6.1.4.3.5.6.6zM135.9 17.7c.6-.1 1.4-.2 1.9-.7 1.3-1.1 2.6-2.2 3.6-3.6.3-.4-1-.2-1.1-.2-.5.1-1.3.3-1.7.7-.9 1.3-2.2 2.3-3.4 3.4-.5.4.4.4.7.4zM146.7 44.8h-4.9c-.6 0-1.5.5-1.6 1.1-.1.7.8.9 1.3.9h4.9c.6 0 1.5-.5 1.6-1.1.1-.7-.7-.9-1.3-.9zM57 60.8c-.5.1-1.4.3-1.6.8-.5 1.3-1 2.6-1.4 3.9-.2.7 2.6.3 2.8-.5.4-1.3.8-2.6 1.4-3.9.2-.5-1-.3-1.2-.3zM61.6 63.4c-.3 0-.7.1-1 .2-.3.1-.7.2-1 .4-.1.1-.3.2-.3.4v.3c0 .1-.1.2-.1.3-.1.1-.1.2 0 .3.2.1.5.1.7.1.4 0 .7-.1 1.1-.3.2-.1.6-.2.8-.4.1-.2.2-.3.3-.5v-.5c0-.3-.4-.3-.5-.3zM116.7 67.1c-.4-.7-3 .3-2.8.8.8 1.6 1.9 3.1 2.9 4.7.4.7 3-.4 2.8-.8-1-1.6-2.1-3.1-2.9-4.7zM120.7 64.7c-.3-.6-1.1-.6-1.6-.4-.4.1-1.5.6-1.2 1.2.4.8.8 1.6 1.2 2.3.3.6 1.1.6 1.6.4.4-.1 1.5-.6 1.2-1.2-.4-.7-.8-1.5-1.2-2.3zM5.7 43.1c-1.5.4-3 .6-4.5 1-.5.1-1.3.6-1.2 1.3.2.7 1.1.7 1.7.6 1.5-.4 3-.6 4.5-1 .5-.1 1.3-.7 1.2-1.3-.3-.7-1.2-.7-1.7-.6z"/></g>
  <g id="Layer_1_1_"><path class="st0" fill="#ffffff" d="M43.8 40.1c-.1-2.7-.5-5.4-.5-8.1 0-2.2.4-4.5-.4-6.6 0-.2.1-.5.1-.7.2-1.1-3.3-.5-3.8.5-.3.3-.5.6-.4 1 0 .1.1.2.1.3-.7 3.2-1.6 6.4-2.6 9.5-.4 1.2-.9 2.4-1.3 3.6-.6-1.1-1.2-2.2-1.7-3.4-1.4-3.5-2.6-7-4.3-10.3.2-1.5-3.2-1.4-3.9 0-.8 1.7-.7 3.4-.4 5.3.3 2.1.4 4.1.4 6.2 0 4 .4 8 .4 12-.4.4-.5.9-.1 1.4l.6.6c.9.7 3.5.1 3.5-1.3 0-4.2-.3-8.3-.4-12.5v-1.2c.1.1.1.3.2.4.6 1.6 1.3 3.2 2.2 4.7.9 1.5 1.3 3.1 1.8 4.7-.2.2-.3.5-.2.7 0 .2.1.3.3.4.6.6 1.9.3 2.5 0 .3-.1.6-.3.8-.4.3-.2.9-.7.7-1.2 0-.1-.1-.2-.1-.3.5-1.3.7-2.6 1-4 .3-1.4.8-2.8 1.3-4.2.1.6.1 1.3.2 1.9.2 2.6 0 5.1 0 7.7 0 .9.1 1.6.2 2.5.1.3.4 1.8.3 1.9-.6.6-.4 1.3.4 1.4.9.2 2.1-.1 2.8-.7 1.2-1.1.6-2.9.4-4.3-.6-2.4-.1-5.1-.1-7.5zM52.2 40.8c-.1-2-.8-3.9-.8-5.9 0-2.3.2-4.6-.2-6.9-.1-.7-4.1.1-4 1.1.3 2.1.2 4.3.2 6.4 0 2.1.5 3.9.7 6 .3 2.1-.1 4.2.1 6.3.1 1 .8 2.8.1 3.6-.4.5 1.5.3 1.6.3.8-.1 1.8-.4 2.3-1 .7-.8.2-2.4.1-3.4-.2-2.3 0-4.4-.1-6.5zM68.7 37.4c-2.1-2.8-5.9-.8-8.6-1.6-1.4-.4-1.4-2.3-1.4-3.4 0-1.4-.1-2.8-.3-4.2-.1-1.1 0-2.1.8-2.9.1-.1.9-.3.8-.3.4-.1.7-.1 1.1-.1 1.6-.1 4.7.2 4.1 2.5-.3 1 3.6.4 3.9-.6 1.2-4.6-7.4-3.7-9.8-3.1-2.2.6-4.7 1.9-4.8 4.4-.1 1.2.3 2.4.3 3.6.1 1.4-.2 2.8.3 4.2 1.1 3 5.6 1.6 7.8 1.8 3.9.3 2.7 5.5 2.8 8 0 1.3 1.2 3.5.2 4.5-.6.7-2 .7-2.8.8-.8.1-2.2.3-2.8-.5-1-1.4.1-3.8-.1-5.5-.2-1-4.2-.1-4 1 .3 2.7-1.4 6.2 2.4 6.7 2.5.3 5.2-.2 7.6-.9 1.2-.4 2.3-1 3.3-1.8 1-.9.7-2.4.4-3.6-.7-3 .7-6.4-1.2-9zM86.2 37.2c-.1-3.8-.7-7.6-.7-11.4 0-2-4-1.3-4 .3 0 3.6.5 7.2.7 10.9v.2c-2 0-3.9.2-5.9.2.2-4.7-.6-9.3-.4-14 0-.6-3.9-.1-4 1.1-.2 4.5.6 9 .5 13.5-.1 2.2-.2 4.3-.3 6.5 0 1.1.2 2.2.3 3.3.1 1 .5 2.4.2 3.3-.2.8 3.6.3 3.9-.7.5-1.8-.2-4.1-.4-5.9-.2-1.7 0-3.5.1-5.3 2-.1 4.1-.3 6.1 0l.3 4.2c.1 1.2.2 2.3.2 3.5 0 1 .1 2.5-.2 3.5-.8 2.1 3.2 1.9 3.8.4.7-1.9.5-4.2.4-6.2-.2-2.4-.6-4.9-.6-7.4zM103.2 41.8c-.9-2.8-2.4-5.2-3.6-7.9 1-2 2-3.9 3-5.9.8-1.8 1.5-3.9 3.1-5.1.6-.5.6-.9-.3-1-.9-.1-2.1.2-2.8.7-1.5 1.2-2.4 2.6-3.2 4.3-1 2.1-1.9 4.1-3 6.1-.1.1-.2.3-.2.4-.5.3-.8.8-.6 1.3-.8 1.6-1.6 3.1-2.5 4.7-.3-5.6-1-11.2-1.2-16.8 0-1.3-4-.5-4 1.1.2 6.9 1.2 13.8 1.3 20.8v.1c-.3.3-.2.5.1.6 0 1.8-.1 3.5-.2 5.3-.5.8.5 1.1 1.1 1.1h.1c.7 0 2.6-.4 2.7-1.4.2-2.1.3-4.2.2-6.3 1.6-1.7 2.9-3.7 4.1-5.7.8 1.5 1.5 3 2 4.6.9 2.8 2.3 5.3 3.2 8.1.5 1.8 4.5.7 4-1.1-.9-2.7-2.3-5.3-3.3-8zM127 37.1c-.2-.8-1.4-.9-2.3-.8v-1c-.1-2.7-.2-5.4-.4-8.1-.2-2.5-1.6-3.4-4-3.3-2.4.1-5.3.5-7.6 1.4-2.6 1-4.1 3-4.6 5.7-.6 3 .2 6.3.4 9.3.2 3.5.1 7.1.1 10.6 0 .6 4 0 4-1.1v-8.4c0-.8-.1-1.6-.1-2.5 1.4-.6 3.7 0 5.1.1 1.1.1 2.2-.2 3.3-.3 0 2.3.1 4.7.2 7 0 1.2.5 3.6-.4 4.6-.4.5 1.5.3 1.6.3.8-.1 1.8-.4 2.3-1.1 1-1.1.5-3.8.4-5.2-.1-1.9-.1-3.9-.1-5.8 1 .2 2.3-.6 2.1-1.4zm-14.8-.2c-.1-1.3-.2-2.5-.3-3.8-.2-2.4.1-5.6 2.3-7.1.6-.4 1.7-.3 2.4-.4 1-.2 2-.4 2.9.2 1.2.8.9 3.7.9 4.9 0 2 .2 4 .3 6.1-.6.1-1.1.1-1.7.1-2.3-.1-4.6-.4-6.8 0zM48.8 25.2c.5-.1 1.1-.2 1.5-.5.1-.1.2-.1.3-.2.5-.3 1-.8.7-1.4-.5-1.1-.4-2.3-.4-3.4 0-1-1-1.3-1.8-1.2-.7.1-2.2.6-2.2 1.5 0 1-.1 2 .1 3 0 .1-.1.2-.1.4-.1.2 0 .4.1.6v.4c.1.2.2.4.4.5.4.3.9.3 1.4.3z"/></g></symbol><symbol id="adaptive-logo--mobile" viewBox="32.458 20.216 85.589 35.034"><path d="M36.638 46.517c-.014-3.472-.262-6.938-.356-10.409-.008-.34-.015-.681-.02-1.021l.146.364c.54 1.352 1.103 2.663 1.839 3.92.731 1.244 1.099 2.58 1.52 3.94-.159.182-.256.39-.196.596-.033.15.059.245.212.306.537.46 1.55.231 2.113-.008.242-.101.474-.221.696-.355.29-.181.744-.572.613-.977l-.072-.235c.396-1.068.598-2.179.813-3.308.23-1.206.659-2.345 1.092-3.485.043.521.088 1.044.129 1.566.174 2.147.028 4.27.008 6.422a9.962 9.962 0 00.183 2.075c.059.287.31 1.521.235 1.588-.516.476-.366 1.061.326 1.211.771.169 1.753-.088 2.333-.625 1.009-.934.531-2.396.304-3.572-.385-1.973.077-4.181.017-6.189-.069-2.26-.43-4.503-.399-6.769.023-1.831.328-3.714-.303-5.471.039-.2.08-.398.117-.6.163-.879-2.754-.414-3.212.392-.29.235-.438.519-.313.806.031.071.057.146.084.219-.552 2.699-1.321 5.313-2.207 7.93-.339 1.001-.748 1.977-1.095 2.978-.49-.933-.986-1.851-1.384-2.847-1.155-2.891-2.199-5.813-3.61-8.596.16-1.289-2.698-1.153-3.261.026-.682 1.426-.592 2.866-.369 4.393.254 1.721.298 3.411.32 5.148.039 3.347.3 6.689.351 10.04-.298.331-.389.741-.078 1.158.136.182.306.321.482.46.758.61 2.947.091 2.942-1.071zM54.834 28.145c-.089-.613-3.416.084-3.3.885.259 1.776.167 3.561.136 5.352-.031 1.722.393 3.282.615 4.971.226 1.732-.071 3.502.126 5.235.09.812.632 2.312.074 3.018-.354.447 1.237.285 1.31.275.646-.12 1.509-.331 1.938-.875.552-.697.165-2.042.045-2.827-.267-1.734-.097-3.537-.162-5.286-.061-1.676-.644-3.254-.65-4.946-.009-1.946.153-3.87-.132-5.802zM57.958 34.791c.91 2.514 4.648 1.327 6.551 1.471 3.238.239 2.272 4.607 2.313 6.641.022 1.085.995 2.889.179 3.798-.502.556-1.669.589-2.352.646-.686.057-1.853.261-2.311-.39-.836-1.194.077-3.2-.102-4.568-.102-.78-3.424-.08-3.299.884.29 2.211-1.179 5.175 2.022 5.556 2.059.244 4.372-.136 6.317-.783 1.008-.334 1.943-.792 2.731-1.509.872-.794.585-1.979.352-2.987-.569-2.458.616-5.289-.987-7.454-1.738-2.345-4.962-.657-7.212-1.297-1.161-.33-1.175-1.911-1.17-2.86.002-1.202-.098-2.302-.231-3.491-.1-.887-.021-1.787.628-2.447.119-.121.723-.283.681-.286.299-.051.572-.063.9-.076 1.304-.056 3.885.195 3.386 2.092-.226.851 3.028.363 3.266-.537 1.021-3.874-6.138-3.131-8.159-2.593-1.863.494-3.916 1.555-4.023 3.704-.052 1.027.229 2.006.274 3.022.052 1.167-.166 2.335.246 3.464zM72.413 36.661c-.053 1.799-.208 3.593-.22 5.393-.006.921.146 1.842.278 2.75.122.841.407 1.964.152 2.796-.198.646 3 .242 3.254-.587.458-1.497-.188-3.402-.341-4.918-.148-1.451-.032-2.945.072-4.42 1.708-.11 3.418-.249 5.119-.011.076 1.163.164 2.321.272 3.483.088.976.151 1.948.164 2.929.015.855.12 2.099-.185 2.913-.651 1.731 2.655 1.59 3.136.308.592-1.577.423-3.537.323-5.194-.13-2.059-.404-4.107-.47-6.166-.102-3.183-.58-6.329-.594-9.516-.007-1.661-3.338-1.099-3.331.288.012 3.04.417 6.037.571 9.068.005.061.008.121.01.185-1.64-.016-3.281.149-4.929.207.171-3.902-.515-7.771-.364-11.672.02-.492-3.264-.077-3.3.883-.143 3.771.496 7.511.383 11.281zM86.493 42.032c-.254.259-.159.414.045.506a50.736 50.736 0 01-.178 4.424c-.396.63.39.96.912.96h.082c.622 0 2.209-.293 2.289-1.148.162-1.769.211-3.535.196-5.299 1.337-1.446 2.434-3.057 3.416-4.748.64 1.248 1.247 2.505 1.676 3.861.725 2.31 1.938 4.431 2.637 6.75.459 1.521 3.754.621 3.298-.885-.701-2.319-1.856-4.462-2.638-6.75-.791-2.322-1.998-4.361-3.046-6.568.845-1.641 1.699-3.283 2.47-4.96.698-1.524 1.219-3.216 2.594-4.289.483-.376.464-.755-.216-.801-.737-.054-1.738.159-2.334.625-1.25.974-2.042 2.158-2.694 3.595a136.28 136.28 0 01-2.455 5.117l-.188.373c-.412.264-.66.642-.539 1.064-.666 1.316-1.347 2.627-2.104 3.885-.252-4.661-.803-9.317-.969-13.983-.036-1.068-3.345-.403-3.297.886.204 5.785 1.024 11.557 1.083 17.34l-.04.045zM118.027 35.8c-.177-.701-1.155-.716-1.914-.648-.01-.281-.017-.566-.029-.849-.106-2.241-.139-4.53-.329-6.765-.176-2.069-1.335-2.811-3.346-2.734-2.035.077-4.404.443-6.302 1.183-2.197.853-3.421 2.471-3.841 4.784-.464 2.539.201 5.238.313 7.789.13 2.951.056 5.909.054 8.859 0 .484 3.297.027 3.297-.884.004-2.338.037-4.676 0-7.014a45.318 45.318 0 00-.085-2.057c1.155-.499 3.106.01 4.255.118.933.089 1.826-.138 2.732-.244.017 1.946.09 3.905.17 5.851.042.997.402 2.975-.297 3.799-.368.436 1.249.288 1.31.28.668-.124 1.482-.338 1.939-.877.8-.942.384-3.192.338-4.316-.065-1.611-.086-3.223-.121-4.834.973-.13 2.038-.726 1.856-1.441zm-6.662-.162c-1.928-.046-3.828-.349-5.651.036-.086-1.051-.183-2.098-.255-3.154-.134-1.962.099-4.702 1.928-5.896.492-.318 1.413-.264 1.984-.368.819-.148 1.647-.328 2.384.16 1.017.676.768 3.08.766 4.101-.002 1.69.177 3.37.262 5.059-.466.046-.939.072-1.418.062zM51.159 24.322a.577.577 0 00.119.497l.002.114.013.282a.766.766 0 00.362.446c.325.196.737.232 1.108.196a2.677 2.677 0 001.245-.44c.072-.062.142-.122.216-.183.439-.282.818-.697.612-1.146-.424-.932-.358-1.88-.35-2.875.005-.808-.812-1.051-1.501-.989-.608.054-1.827.489-1.831 1.279-.007.836-.062 1.698.092 2.523-.04.093-.064.199-.087.296zM112.736 53.505c-1.558-.585-3.283-.615-4.851-.787-1.603-.17-3.245-.41-4.884-.563-1.637.053-3.31.027-4.972.129l-4.88.268c-6.487.289-12.999.253-19.517.107-6.517-.123-13.045-.477-19.63-.453-3.288.008-6.566.099-9.862.25-1.632.283-3.239.501-4.904.913-1.615.399-3.145.907-4.794 1.048 1.623.362 3.341.292 4.962.297 1.579.01 3.243.143 4.872.231a197.04 197.04 0 019.733-.258c6.487-.024 13.015.329 19.565.451 6.548.146 13.114.186 19.683-.11l4.907-.268c1.603-.071 3.198-.127 4.829-.067 1.628-.148 3.253-.33 4.918-.532 1.664-.238 3.22-.627 4.854-.509l.074.006.006-.055c.021-.178-.04-.323-.04-.48-.033.128-.038.265-.069.382z"/></symbol><symbol id="adaptive-logo--tablet" viewBox="19.137 15.003 112.389 46.087"><path d="M129.364 56.884c4.393.868.843-35.858.147-38.311-1.96-6.569-26.677-2.144-32.18-1.717-12.723.987-25.189-.96-37.611-.376-6.205.292-34.854-1.813-37.519 1.986-5.048 7.208-2.652 25.797-1.278 35.076-4.043.779 2.309 4.154 3.138 4.897 6.315 2.192 16.358-.219 23.007.396 15.434 1.472 31.797-2.194 47.276-.955 4.496 1.144 9.604 1.019 14.224 1.239 3.414 5.572 19.664-2.461 20.796-2.235-.1-.02.507.1 0 0z"/><g fill="#FFF"><path d="M45.195 39.413c-.079-2.546-.484-5.074-.451-7.624.026-2.063.37-4.185-.341-6.164.044-.225.091-.449.132-.675.184-.992-3.103-.467-3.62.44-.325.266-.492.584-.354.908.035.082.065.165.096.247-.623 3.04-1.49 5.985-2.487 8.932-.382 1.128-.843 2.229-1.232 3.354-.553-1.049-1.111-2.084-1.56-3.206-1.303-3.257-2.478-6.55-4.068-9.685.181-1.452-3.039-1.299-3.674.03-.767 1.607-.668 3.229-.416 4.948.285 1.938.335 3.842.358 5.8.045 3.771.339 7.537.396 11.311-.336.372-.438.835-.087 1.305.153.203.344.362.542.52.858.687 3.323.101 3.318-1.207-.013-3.911-.295-7.815-.399-11.727-.01-.383-.017-.766-.022-1.149l.163.411c.607 1.523 1.243 3.001 2.073 4.416.824 1.401 1.237 2.908 1.711 4.438-.179.206-.288.439-.221.674-.038.169.067.275.238.342.606.519 1.747.261 2.381-.008a5.73 5.73 0 00.784-.401c.327-.202.838-.645.691-1.1l-.083-.265c.447-1.204.674-2.456.917-3.727.259-1.357.742-2.64 1.229-3.924.049.587.1 1.176.147 1.762.194 2.422.031 4.812.008 7.236-.009.803.05 1.55.208 2.337.064.324.348 1.714.266 1.79-.58.535-.412 1.192.366 1.363.868.19 1.975-.101 2.628-.705 1.137-1.05.6-2.699.342-4.024-.429-2.221.091-4.709.021-6.973zM53.132 40.056c-.069-1.888-.725-3.666-.734-5.573-.01-2.188.172-4.358-.146-6.535-.101-.689-3.849.095-3.717.996.293 2.002.187 4.014.151 6.029-.035 1.941.444 3.699.694 5.603.254 1.95-.081 3.945.141 5.897.103.913.712 2.603.084 3.399-.398.505 1.394.322 1.474.309.729-.136 1.702-.372 2.186-.987.62-.784.186-2.3.051-3.185-.302-1.955-.11-3.983-.184-5.953zM68.629 36.903c-1.957-2.641-5.589-.739-8.125-1.46-1.308-.372-1.323-2.155-1.319-3.224.003-1.353-.108-2.592-.26-3.934-.112-.998-.022-2.013.708-2.755.135-.137.815-.318.768-.322a7.685 7.685 0 011.013-.088c1.469-.064 4.376.22 3.814 2.356-.253.958 3.413.409 3.68-.604 1.15-4.364-6.914-3.526-9.192-2.921-2.098.557-4.412 1.751-4.531 4.174-.059 1.156.257 2.258.309 3.404.057 1.319-.188 2.635.273 3.907 1.027 2.831 5.238 1.495 7.38 1.656 3.65.271 2.561 5.19 2.608 7.48.025 1.224 1.121 3.255.2 4.278-.565.627-1.881.664-2.649.729-.772.064-2.089.296-2.604-.438-.942-1.345.087-3.605-.114-5.146-.115-.879-3.859-.091-3.717.995.325 2.492-1.328 5.83 2.279 6.258 2.318.275 4.926-.152 7.118-.881 1.135-.376 2.188-.894 3.077-1.701.982-.892.659-2.228.396-3.365-.641-2.77.695-5.957-1.112-8.398zM85.07 36.725c-.114-3.584-.653-7.129-.669-10.719-.007-1.871-3.762-1.239-3.754.325.014 3.424.472 6.801.646 10.215l.012.209c-1.85-.017-3.699.169-5.553.233.191-4.396-.58-8.756-.411-13.149.021-.553-3.677-.086-3.718.995-.162 4.247.558 8.461.43 12.709-.061 2.026-.232 4.046-.247 6.074-.007 1.039.163 2.074.313 3.098.138.947.459 2.212.172 3.149-.224.731 3.379.275 3.666-.659.516-1.687-.211-3.834-.383-5.541-.167-1.636-.039-3.319.078-4.98 1.925-.123 3.851-.281 5.769-.011.084 1.308.186 2.613.305 3.924.101 1.099.171 2.194.187 3.298.016.966.135 2.367-.21 3.282-.733 1.953 2.99 1.792 3.533.347.667-1.775.476-3.984.363-5.85-.144-2.32-.455-4.627-.529-6.949zM101.139 40.971c-.892-2.617-2.252-4.913-3.431-7.399.95-1.85 1.915-3.7 2.782-5.588.788-1.715 1.373-3.624 2.922-4.833.545-.424.523-.85-.243-.902-.83-.058-1.958.182-2.629.704-1.408 1.099-2.301 2.433-3.035 4.05a155.46 155.46 0 01-2.765 5.765c-.069.14-.141.28-.213.421-.465.3-.744.723-.607 1.201-.75 1.484-1.518 2.959-2.371 4.375-.283-5.25-.905-10.496-1.093-15.752-.041-1.205-3.768-.455-3.715.996.23 6.517 1.155 13.021 1.221 19.536l-.047.048c-.285.293-.179.469.051.571a57.736 57.736 0 01-.199 4.985c-.448.709.439 1.081 1.029 1.081h.092c.701 0 2.49-.331 2.579-1.294.182-1.992.237-3.981.221-5.971 1.508-1.627 2.741-3.444 3.849-5.348.72 1.405 1.405 2.821 1.887 4.35.816 2.601 2.182 4.991 2.971 7.604.518 1.713 4.229.701 3.717-.996-.791-2.611-2.093-5.024-2.973-7.604zM123.443 36.573c-.199-.791-1.302-.807-2.156-.731-.012-.318-.02-.637-.033-.956-.12-2.525-.158-5.104-.371-7.622-.198-2.33-1.505-3.167-3.77-3.08-2.293.087-4.962.5-7.101 1.332-2.475.962-3.852 2.784-4.326 5.391-.522 2.86.227 5.901.354 8.775.146 3.324.063 6.655.059 9.98 0 .545 3.717.03 3.717-.996.004-2.633.041-5.268 0-7.9a50.827 50.827 0 00-.097-2.318c1.3-.563 3.499.011 4.792.133 1.052.1 2.059-.155 3.079-.275.02 2.193.101 4.4.191 6.591.047 1.122.453 3.351-.335 4.279-.414.491 1.405.326 1.475.314.753-.139 1.671-.381 2.186-.988.901-1.062.433-3.597.381-4.863-.074-1.814-.097-3.63-.135-5.443 1.095-.145 2.294-.816 2.09-1.623zm-13.872-.143c-.099-1.183-.207-2.364-.288-3.552-.15-2.212.111-5.298 2.172-6.642.553-.36 1.59-.298 2.235-.416.922-.165 1.856-.369 2.685.181 1.148.762.865 3.47.863 4.62-.002 1.904.198 3.797.295 5.698-.524.052-1.056.084-1.597.073-2.169-.053-4.311-.394-6.365.038zM49.915 25.373a2.99 2.99 0 001.401-.497l.244-.206c.493-.318.92-.785.69-1.29-.479-1.049-.403-2.117-.395-3.241.006-.908-.914-1.182-1.689-1.114-.686.061-2.058.551-2.063 1.443-.007.942-.068 1.913.104 2.84-.046.106-.071.226-.099.336-.053.201.015.399.135.56l.002.127.014.318c.07.221.205.388.407.503.367.221.832.262 1.249.221z"/></g></symbol><symbol id="page-footer-logo" viewBox="0 0 102 34"><path d="M19.1 21.5c-.1-2.7-.5-5.3-.5-8 0-2.2.4-4.4-.4-6.5 0-.2.1-.5.1-.7.2-1-3.3-.5-3.8.5-.3.3-.5.6-.4 1 0 .1.1.2.1.3-.7 3.2-1.6 6.3-2.6 9.4-.4 1.2-.9 2.3-1.3 3.5-.6-1.1-1.2-2.2-1.6-3.4-1.4-3.4-2.6-6.9-4.3-10.2.2-1.5-3.2-1.4-3.9 0-.8 1.7-.7 3.4-.4 5.2.3 2 .4 4 .4 6.1 0 4 .4 7.9.4 11.9-.4.4-.5.9-.1 1.4.2.2.4.4.6.5 1 .7 3.6.1 3.6-1.3 0-4.1-.3-8.2-.4-12.4v-1.2c.1.1.1.3.2.4.6 1.6 1.3 3.2 2.2 4.7.9 1.5 1.3 3.1 1.8 4.7-.2.2-.3.5-.2.7 0 .2.1.3.3.4.6.5 1.8.3 2.5 0 .3-.1.6-.3.8-.4.3-.2.9-.7.7-1.2 0-.1-.1-.2-.1-.3.5-1.3.7-2.6 1-3.9.3-1.4.8-2.8 1.3-4.1.1.6.1 1.2.2 1.9.2 2.6 0 5.1 0 7.6 0 .8.1 1.6.2 2.5.1.3.4 1.8.3 1.9-.8.5-.6 1.1.2 1.3.9.2 2.1-.1 2.8-.7 1.2-1.1.6-2.8.4-4.2-.5-2.4 0-5-.1-7.4zM27.5 22.2c-.1-2-.8-3.9-.8-5.9 0-2.3.2-4.6-.2-6.9-.1-.7-4.1.1-3.9 1 .3 2.1.2 4.2.2 6.4 0 2 .5 3.9.7 5.9.3 2.1-.1 4.2.1 6.2.1 1 .8 2.7.1 3.6-.4.5 1.5.3 1.6.3.8-.1 1.8-.4 2.3-1 .7-.8.2-2.4.1-3.4-.3-2-.1-4.2-.2-6.2zM43.8 18.9c-2.1-2.8-5.9-.8-8.6-1.5-1.4-.4-1.4-2.3-1.4-3.4 0-1.4-.1-2.7-.3-4.1-.1-1.1 0-2.1.7-2.9.1-.1.9-.3.8-.3.4-.1.7-.1 1.1-.1 1.5-.1 4.6.2 4 2.5-.3 1 3.6.4 3.9-.6 1.2-4.6-7.3-3.7-9.7-3.1-2.2.6-4.6 1.8-4.8 4.4-.1 1.2.3 2.4.3 3.6.1 1.4-.2 2.8.3 4.1 1.1 3 5.5 1.6 7.8 1.7 3.8.3 2.7 5.5 2.7 7.9 0 1.3 1.2 3.4.2 4.5-.6.7-2 .7-2.8.8-.8.1-2.2.3-2.7-.5-1-1.4.1-3.8-.1-5.4-.1-.9-4.1-.1-3.9 1 .3 2.6-1.4 6.1 2.4 6.6 2.4.3 5.2-.2 7.5-.9 1.2-.4 2.3-.9 3.2-1.8 1-.9.7-2.3.4-3.5-.5-3.1.9-6.5-1-9zM61.2 18.7c-.1-3.8-.7-7.5-.7-11.3 0-2-4-1.3-4 .3 0 3.6.5 7.2.7 10.8v.2c-1.9 0-3.9.2-5.9.2.2-4.6-.6-9.2-.4-13.9 0-.6-3.9-.1-3.9 1-.2 4.5.6 8.9.5 13.4-.1 2.1-.2 4.3-.3 6.4 0 1.1.2 2.2.3 3.3.1 1 .5 2.3.2 3.3-.2.8 3.6.3 3.9-.7.5-1.8-.2-4-.4-5.8-.2-1.7 0-3.5.1-5.2 2-.1 4.1-.3 6.1 0 .1 1.4.2 2.8.3 4.1.1 1.2.2 2.3.2 3.5 0 1 .1 2.5-.2 3.5-.8 2.1 3.1 1.9 3.7.4.7-1.9.5-4.2.4-6.2-.2-2.5-.6-4.9-.6-7.3zM78.1 23.1c-.9-2.8-2.4-5.2-3.6-7.8 1-1.9 2-3.9 2.9-5.9.8-1.8 1.4-3.8 3.1-5.1.6-.4.6-.9-.3-1-.9-.1-2.1.2-2.8.7C76 5.3 75 6.7 74.3 8.4c-.9 2.1-1.9 4.1-2.9 6.1-.1.1-.1.3-.2.4-.5.3-.8.8-.6 1.3-.8 1.6-1.6 3.1-2.5 4.6-.3-5.5-1-11.1-1.2-16.6 0-1.3-4-.5-3.9 1 .2 6.9 1.2 13.7 1.3 20.6v.1c-.3.3-.2.5.1.6 0 1.8-.1 3.5-.2 5.3-.5.7.5 1.1 1.1 1.1h.1c.7 0 2.6-.3 2.7-1.4.2-2.1.3-4.2.2-6.3 1.6-1.7 2.9-3.6 4.1-5.6.8 1.5 1.5 3 2 4.6.9 2.7 2.3 5.3 3.1 8 .5 1.8 4.5.7 3.9-1-1-2.8-2.4-5.3-3.3-8.1zM101.6 18.5c-.2-.8-1.4-.8-2.3-.8v-1c-.1-2.7-.2-5.4-.4-8-.2-2.5-1.6-3.3-4-3.2-2.4.1-5.2.5-7.5 1.4-2.6 1-4.1 2.9-4.6 5.7-.5 3 .2 6.2.4 9.2.2 3.5.1 7 .1 10.5 0 .6 3.9 0 3.9-1V23c0-.8-.1-1.6-.1-2.4 1.4-.6 3.7 0 5.1.1 1.1.1 2.2-.2 3.2-.3 0 2.3.1 4.6.2 6.9 0 1.2.5 3.5-.4 4.5-.4.5 1.5.3 1.6.3.8-.1 1.8-.4 2.3-1 .9-1.1.5-3.8.4-5.1-.1-1.9-.1-3.8-.1-5.7 1.1-.2 2.4-.9 2.2-1.8zM87 18.4c-.1-1.2-.2-2.5-.3-3.7-.2-2.3.1-5.6 2.3-7 .6-.4 1.7-.3 2.4-.4 1-.2 2-.4 2.8.2 1.2.8.9 3.7.9 4.9 0 2 .2 4 .3 6-.6.1-1.1.1-1.7.1-2.3-.2-4.6-.6-6.7-.1zM24.1 6.7c.5-.1 1-.2 1.5-.5l.2-.2c.5-.3 1-.8.7-1.4-.5-1.1-.4-2.2-.4-3.4 0-1-1-1.2-1.8-1.2-.7.1-2.2.6-2.2 1.5 0 1-.1 2 .1 3 0 .1-.1.2-.1.4-.1.2 0 .4.1.6v.4c.1.2.2.4.4.5.6.3 1.1.3 1.5.3z"/></symbol><symbol id="icon-email" viewBox="0 0 32 32"><path d="M28 5H4C1.8 5 0 6.8 0 9v13c0 2.2 1.8 4 4 4h24c2.2 0 4-1.8 4-4V9c0-2.2-1.8-4-4-4zM2 10.3l7 5.3-7 5.3V10.3zM30 22c0 1.1-.9 2-2 2H4c-1.1 0-2-.9-2-2l7.8-5.9 4.4 3.3c.5.4 1.2.6 1.8.6.6 0 1.3-.2 1.8-.6l4.4-3.3L30 22zm0-1.2l-7-5.3 7-5.3v10.6zm-12.8-2.2c-.4.3-.8.4-1.2.4-.4 0-.9-.1-1.2-.4l-4.1-3.1-.8-.6L2 9c0-1.1.9-2 2-2h24c1.1 0 2 .9 2 2l-12.8 9.6z"/></symbol><symbol id="icon-tel" viewBox="0 0 24.8 24.3"><path d="M17.3 24.3h-1.1c-4.9-.6-8.5-2.9-11.1-5.8C2.5 15.6.4 11.9 0 6.8V5.4c.1-.9.5-1.5 1.1-2.1.6-.7 1.6-1.5 2.5-1.6.7 0 1.8.5 2.2 1.1.4.5.6 1.6.8 2.4.2.9.6 2 .5 2.8-.2 1.2-1.8 1.7-2.2 2.6 1.6 3.7 4.1 6.5 7.5 8.3.8-.5 1.6-1.9 2.8-1.9.4 0 1 .2 1.4.3.5.1.9.3 1.3.5.7.3 2 .6 2.4 1.2.4.6.7 1.6.6 2.2-.3 1.3-2.4 2.7-3.6 3.1zM12.5 1.5c5.9 0 10.8 4.8 10.8 10.8h1.5C24.8 5.5 19.3 0 12.5 0v1.5z"/><path d="M12.5 9.3v1.6c.8 0 1.4.6 1.4 1.4h1.6c0-1.6-1.3-3-3-3zM12.5 6.2c3.3 0 6.1 2.7 6.1 6.1h1.6c0-4.2-3.4-7.6-7.6-7.6v1.5z"/></symbol><symbol id="icon-cart" viewBox="264.205 370.961 20.295 18.849"><path d="M283.75 378.19h-3.151l-3.407-6.814a.749.749 0 10-1.341.67l3.071 6.143h-9.138l3.072-6.143a.75.75 0 10-1.341-.67l-3.407 6.814h-3.151a.75.75 0 000 1.5h.157l.855 2.991a.74.74 0 00-.316.595c0 .396.309.71.697.739l1.656 5.795h12.697l1.656-5.795a.745.745 0 00.698-.739.736.736 0 00-.317-.596l.855-2.991h.157a.75.75 0 10-.002-1.499zm-4.181 10.121h-10.433l-1.224-4.284h12.881l-1.224 4.284zm1.653-5.785h-13.739l-.81-2.837h15.359l-.81 2.837z"/></symbol><symbol id="icon-search" viewBox="0 0 18 18"><path d="M17.27 15.73l-3.415-3.415A7.67 7.67 0 0015.4 7.699c0-4.253-3.447-7.698-7.7-7.698S0 3.446 0 7.699s3.445 7.7 7.698 7.7c1.734 0 3.326-.58 4.613-1.546l3.417 3.416c.203.202.418.33.771.33a1.1 1.1 0 001.1-1.1c.001-.239-.061-.498-.329-.769zM2.198 7.699a5.5 5.5 0 1111 0c0 3.038-2.462 5.5-5.5 5.5s-5.5-2.461-5.5-5.5z"/></symbol><symbol id="icon-fb" viewBox="56.519 49.996 14.962 27.718"><path d="M68.181 55.189c1.026.029 1.993-.001 2.681-.3.391-.818.556-1.854.619-2.989-.19-.015-.062-.337-.207-.399-.029-.202-.278-.195-.309-.398-.277-.165-.457-.422-.723-.598-.727-.162-1.44-.335-2.164-.499-.849.044-1.895-.103-2.58.1-2.619-.04-3.997 1.12-5.259 2.392-.023.078-.003.197-.105.199-.574 1.587-.125 3.621-.204 5.581.099.436.107.958.204 1.395-.998.296-2.212.387-3.402.499-.317.324-.178 1.089-.206 1.693.085.583.278 1.06.413 1.595.211.193.596.397.825.498.065.029.071.082.103.1.506.268 1.451.008 2.268.1-.136 1.978.256 3.915 0 5.68.007.327.295.382.208.798-.001.963-.067 1.99.208 2.69-.287.455-.497.982-.415 1.794.122.016.114.157.105.299-.075.47.643.175.515.698.162.456-.428.184-.413.498v.896c.53.285 1.462.182 2.268.199.908-.419 2.187-.478 2.785-1.196.459.235.916-.014 1.238-.199-.018-.316.274-.333.205-.698-.004-.328-.173-.496-.103-.896V71.83c-.206-2.293-.048-4.938-.309-7.176.888-.106 1.917-.075 2.578-.398.357-.451.377-1.23.516-1.895.177-.226.221-.583.206-.996.19-.213.068-.729.104-1.096-.141-.595-.168-1.3-.825-1.395-.884-.235-2.043.595-2.991.299.049-1.134-.293-2.342 0-3.388.746-.176 1.446-.395 2.166-.596zm-3.818 4.782c.117.254.254.486.414.698.079.023.203.003.205.101a10.319 10.319 0 003.096-.299c0 .998-.271 1.733-.518 2.492-.662.045-1.467.3-1.958.198-.276.165-.372.506-.62.698-.049.441.142.495 0 .797-.201.137-.055.611-.205.796v1.496c.085.281-.146.258-.104.497v3.488c-.085.281.146.258.104.498v2.989c.063.271-.132.791.103.896-.07.364-.412-.021-.824.1-.528.122-.926.369-1.548.4.117-.353.32-.622.311-1.097.049-.381-.365-.312-.516-.498.193-.644.563-1.117.722-1.793.197-.515.714-1.298.31-1.794-.523-.105-.522.293-.826.398-.022.077-.002.196-.103.199-.023.077-.003.196-.103.199.01.12-.151.062 0 0 .022-.078.002-.197.103-.199.023-.077.002-.197.103-.199v-.299c.368-.575.67-1.214.826-1.993.191-.28.283-.656.412-.997.156-.262.34-.869.104-1.195-.517.033-.796.295-.93.697-.32-.189.161-.434.105-.697.138-.231.169-.566.309-.797.202-.413.564-1.304 0-1.596-.438-.023-.612.207-.723.498-.214.191-.43.383-.516.698-.373-.07-.143-.727-.206-1.097-.067-.52.122-.899 0-1.195-.559-.799-2.026-.105-3.197-.299-.108-.307-.222-.984-.104-1.195 1.045-.088 2.479.201 3.197-.199.024-.078.003-.197.104-.199.094-.723-.271-1-.515-1.395.232-.806.04-2.02.103-2.989.233-.141.328-.414.515-.598.112-.955.673-1.476.722-2.492-.273.001-.607-.055-.619.199-.302-.114-.382.479-.515.199-.112-.541.246-.626.308-.997.599-.418 1.212-.82 1.857-1.195 1.741-.244 4.648-.449 6.086.198.051.616-.287.854-.207 1.496h-1.546c-1.092.24-1.987.672-2.991.997-.24.066-.276.331-.516.398-.036.396-.225.646-.311.996-.079 1.44.133 2.598.102 3.987z"/></symbol><symbol id="icon-insta" viewBox="53.115 53.19 21.769 21.334"><path d="M74.881 65.336c-.013-2.394-.344-4.788-.303-7.135a37.854 37.854 0 00-.152-2.278c-.105-.3-.111-.699-.152-1.063-.26-.17-.222-.64-.456-.835-.423-.233-1.201-.114-1.744-.227-.657-.026-1.254-.115-1.899-.153-1.936-.101-3.973-.076-5.996-.076-2.001 0-3.954-.144-5.695-.379h-2.202c-.097.004-.105.098-.227.076-.599.034-1.077.188-1.595.303-.21.119-.421.235-.683.304-.136.192-.513.145-.607.379-.186.212.185.451 0 .607v.911c.173.13.027.58.075.835v.987c-.017 1.281.134 2.397.076 3.72.467 2.762.374 6.537.076 9.413.155.579.363 1.105.455 1.746.256.479.335 1.133.683 1.52.502.206 1.233.186 1.898.229.383.098.667.293 1.14.304 2.843-.21 5.496-.154 8.427-.228 2.704.24 5.802.188 8.275-.228.195-.134.128-.529.228-.76-.056-.385.207-.449.227-.759.132-2.392.164-4.786.151-7.213zm-12.982-6.225c.757-.153 1.48-.341 2.429-.304.71.076 1.287.283 1.897.456.116.184-.243.547.153.684v.076c.059.017.149.002.151.076.445.035.794.167 1.064.379.45.055.536.476 1.138.38-.091.213-.084.524-.075.835.324 1.183.475 2.81.303 4.252-.164.163-.215.442-.303.683-.311.322-.482.785-.836 1.063-.095.236-.25.408-.454.533-.116.213-.206.452-.457.53-.298.163-.577.011-.834-.076-.446.162-.904.312-1.215.607-.816-.096-1.648-.175-2.43-.304-.242-.139-.487-.274-.835-.305a1.997 1.997 0 00-.836-.455c-.101-.127-.337-.118-.455-.229-.198-.029-.229-.227-.456-.229-.118-.412-.443-.618-.532-1.062-.226-.331-.308-.805-.455-1.215-.043-1.434.091-2.692.379-3.796.346-.591.779-1.094 1.138-1.67.249.02.365-.09.38-.304.306.053.434-.072.684-.075.256-.073.268-.39.457-.53zm-1.671-2.733c-.117-.263-.066-.691-.075-1.062-.007-.285.278-.279.304-.532-.003-.074-.093-.059-.152-.076.126-.145.701-.097.834 0 .132.537-.354.455-.531.684.011.167.322.032.456.076.029.854-.059 1.496 0 2.202h-.456c-.007.234.229.226.456.228-.059.286.092.363.075.607-.225.153-.716.042-1.062.075-.102-.594.236-1.375.151-2.202zm-.682-1.594c.088-.013.134.016.151.076.179.253.01.683-.076.911-.173-.179-.026-.682-.075-.987zm.152 1.822c-.132-.069-.168-.237-.152-.456.132.071.167.238.152.456zm0 1.367c-.058.139-.082-.045-.076-.152.058-.139.081.045.076.152zm-.152.228c.175-.024.084.219.228.227-.009.193-.283.179-.38.077.039-.112.113-.192.152-.304zm-2.354-1.216c.006-.108.013-.214-.076-.228-.073-.733.13-1.414 0-1.973.25-.155.769-.042 1.139-.077v1.139c-.088.064-.203.101-.379.077-.054.28.324.131.379.304.008.852-.056 1.777.152 2.429-.565-.059-.906.107-1.442.076.097-.612-.019-1.435.531-1.594-.012-.141-.257-.047-.304-.153zm-.531 0c-.204.021-.217-.534-.077-.607.328.006.249.501.077.607zm-.152.988c.077-.312.034-.304.075-.683.228.013.26.77-.075.683zm.228-2.05c-.263.054-.273-.266-.153-.38.263-.053.272.267.153.38zm0-1.139c.033.159-.052.201-.076.304-.176.023-.084-.219-.229-.229.025-.102.191-.062.305-.075zm-.228 3.721c.148-.031.11.345-.076.227a.363.363 0 00.076-.227zm-.684-3.721c.029.259-.438.32-.379 0h.379zm-.987.076c-.034.219-.326.179-.379.379-.214-.17.084-.467.379-.379zm-.455.759c.226-.205.451-.41.684-.607-.021-.123.071-.131.076-.228h.229c.102.381-.261.296-.305.531.021.122-.072.131-.075.227.02.335.121.588.075.988-.27.008-.276.28-.607.227.022-.428-.135-.674-.077-1.138zm.076 3.265V57.29c.195-.184.396-.364.607-.532.295.489.179 1.392.455 1.898-.275.156-.751.11-1.062.228zM72.68 69.968c-.109.954-.158 1.968-.379 2.809-2.89.123-6.019.005-8.883.153-.199.045-.274-.031-.229-.229-.253 0-.258.247-.531.229.201-.336.438-.898.151-1.291-.797.013-.797.821-1.138 1.291-.686-.053-1.137.127-1.823.075.18-.705.75-1.021.911-1.745-.395-.55-.989.138-1.214.455-.204.48-.557.81-.76 1.29H57.8c.238-.469.489-.926.759-1.366.171-.512.625-.741.683-1.367-.157-.28-.42-.029-.683 0-.123.182-.273.335-.38.531-.232.376-.501.714-.684 1.14-.181.208-.335.003-.53.226-.389.271-.581.736-.988.987-.174-.06.039-.356.153-.38.045-.181-.096-.55.075-.608.063-.366.212-.647.379-.91.119-.742.521-1.199.684-1.898-.559.099-.674.642-.988.987-.212.445-.542.772-.683 1.291-.174-.131-.028-.58-.076-.836.122-.586.298-1.119.38-1.746.133-.22.173-.535.228-.834.169-.209.046-.61-.077-.761-.226.027-.374.133-.455.304-.192-.032-.193.506-.304.304-.045-2.587-.451-4.813-.456-7.438.026-.331-.183-.424-.227-.685 1.629.028 3.121.091 4.783.229-.089.139-.199.257-.304.379-.144.07-.226.173-.379.304-.604 1.653-.975 3.984-.607 6.15.229.58.589 1.029.986 1.441.907.485 1.635 1.149 2.506 1.671 1.701.361 3.84.369 5.541 0 .236-.12.484-.226.685-.38 1.364-1.242 2.753-2.459 2.961-4.859v-1.367c-.197-1.598-.688-2.905-1.747-3.644.331-.22 1.099.043 1.67.076.223.013.447.014.684 0 .408-.024.928-.055 1.443 0 .144.186.113.544.228.76-.062 1.683-.192 3.3-.152 5.087.103.454.127.986.229 1.441a17.183 17.183 0 01-.457 2.734zm.379-11.16c-.639-.12-1.232-.284-1.897-.379.072-.333.799-.01.987-.228.385-.223.295-.92.304-1.519.032-.348.114-.643.076-1.063-.401-.951-1.783-.421-2.886-.455-.225.718-.47 1.8-.304 2.657.169.49 1.024.292 1.519.456-.14.332-.688.057-.987.076-.296-.083-.707-.052-.986-.151-2.285.078-4.284.004-6.529.151.117-1.248.064-2.465-.076-3.645h3.112c-.344.364-.912.507-1.29.835-.44.244-.861.505-1.139.911.249.134.535-.245.759-.379.356-.074.48-.381.835-.455.423-.438 1.096-.625 1.67-.912.378-.022.697.013.987.077 1.283.007 2.456.126 3.796.076.614.145 1.45.069 1.974.304.107.298.231.579.305.911.008.995-.149 1.825-.23 2.732zm-5.845-3.72c.11-.047-.009-.092 0 0zm0 0c-.529.154-1.019.348-1.367.682.484-.198 1.059-.306 1.367-.682zm1.062.607c.111-.047-.007-.091 0 0zm-1.746.911c.727-.158 1.181-.591 1.746-.911-.437.019-.592.32-.987.379-.215.217-.6.261-.759.532zm-.683-.835c-.111.047.006.092 0 0zm-.683.607c.11-.046-.008-.092 0 0zm-.075.076c.063.014.07-.03.075-.076-.064-.014-.072.03-.075.076zm-.077.076c.064.014.072-.03.077-.076-.067-.013-.072.029-.077.076zm-.834.608c.346-.134.613-.348.834-.607a2.018 2.018 0 00-.834.607zm2.276.987c.533-.049.749-.416 1.215-.531.284-.298.784-.381.987-.76-.56.023-.766.399-1.216.531-.284.297-.751.413-.986.76zm-2.276-.987c-.317-.073-.016.227 0 0zm-.534.379c.022.022.115-.037.076-.077-.02-.02-.115.038-.076.077zm2.81.608c-.11.047.007.091 0 0zm-1.14 1.821c-.223-.232-.676-.233-.986-.379-.697-.038-1.223.093-1.746.229-.304.151-.607.304-.91.454-.266.165-.444.417-.76.532-.205.225-.352.51-.684.607-.004.223-.173.281-.304.379-.089.115-.094.312-.227.381-.007.12.036.29-.076.303.108 1.512.291 2.948.683 4.177.287.623.975.846 1.442 1.29.589.297 1.328.444 2.126.531.277-.052.553-.105.911-.076a5.088 5.088 0 002.81-1.441c.1-.281.252-.508.455-.684-.254-.671.293-1.098.455-1.596.002-1.344-.201-2.48-.607-3.415-.256-.579-.92-.752-1.366-1.139-.059-.017-.15-.003-.151-.077-.269-.13-.733-.233-1.065-.076zm-3.415 4.327c-.113-.063-.109-.244-.152-.379.256-.078.118.237.152.379zm.076.305c.041-.117.079-.006.076.075-.04.118-.079.005-.076-.075zm.456-2.051c.015-.086.075-.042.075 0-.014.087-.075.043-.075 0zm1.67-2.125c-.203.258.041.576.077.836-.305-.039-.574-.887-.077-.836zm.379 3.948c-.04-.038.055-.097.076-.076.04.039-.054.097-.076.076zm.759 2.884c.034-.109.066.008.152 0-.018.097-.15.077-.152 0zm2.201-2.581c-.233-.057-.145.208-.379.152.069-.159.118-.338.229-.455.134.019.172.131.15.303zm-1.137-3.796c.211.119.441.217.607.381.085.219.243.363.38.529.058.778.179 1.492.151 2.354-.257.099-.438.271-.683.381-.78-.006-1.358-.212-1.897-.456-.171-.259-.355-.505-.532-.759v-1.063c.17-.185.319-.391.456-.607.228-.127.508-.201.454-.607-.038-.062-.078-.124-.075-.229.158.045.245.159.379.229.322.018.409-.199.76-.153z"/></symbol><symbol id="icon-twitter" viewBox="52.253 53.772 23.494 20.168"><path d="M75.706 57.856c-.227-.366-.909-.277-1.407-.371h-1.112c.142-.353.343-.646.52-.963.056-.438.254-.734.223-1.26.129-.167.176-.417.296-.593.104-.144.242-.477.074-.667-.051-.221-.295-.249-.593-.222a.515.515 0 00-.222.148c-.448.433-.778 1.014-1.261 1.408-.009.008-.062 0-.074 0-.087.005-.033.046-.075.074-.146.098-.257.152-.369.223-.284.176-.547.445-.891.519-.529-.211-1.156-.326-1.852-.37-1.157.102-2.303.215-3.038.741-.911.35-1.477 1.042-2.149 1.63-.049.32-.342.398-.37.741-.005.045-.012.088-.073.074.043.241-.051.345-.074.519-.001.133.199.431 0 .519-.822-.12-1.485-.63-2.149-.964-.718-.36-1.468-.603-2.074-1.111-.716-.322-1.26-.816-1.778-1.334-.208-.312-.542-.496-.667-.89-.379-.164-.175-.912-.741-.889-.315-.043-.345.199-.444.37-.07.227-.361.232-.371.519-.004.046-.011.088-.074.075-.17 1.089-.527 1.992-.519 3.26.129.415.35.738.593 1.038-.418.051-.716.222-.89.519-.06 1.073.378 1.647.742 2.297.134.384.351.685.593.963.017.23.206.288.296.445.019.105.123.125.149.223-.04.105.289.18.073.221-.413.131-1.016.07-1.259.371-.109.279-.109.833 0 1.111.034.237.282.262.296.519.499.417 1.082.747 1.631 1.112.574.166 1.211.271 1.852.37-.102.343-.338.551-.593.741-.78.381-1.849.474-2.742.74-.555.038-.956.231-1.556.223-.332.127-.853.075-1.112.223-.122.068-.102.096-.222.221-.134.412.111.74.444.89-.005.253.219.276.371.371.089.183.254.29.445.37.544.468 1.268.759 1.927 1.112.829.183 1.648.376 2.519.519.896.116 1.901.124 2.816.222h.963c.511.132 1.23.054 1.853.074.095-.102.322-.073.519-.074.522-.269 1.196-.385 1.631-.74.574-.241.989-.642 1.557-.89.866-.765 1.936-1.324 2.518-2.372.205-.19.351-.438.445-.74.265-.156.385-.454.593-.667.404-.41.706-.924 1.037-1.408.319-.496.576-1.054.89-1.556-.01-.405.306-.484.296-.89.193-.226.177-.662.371-.889-.033-.255.029-.415.074-.594.047-1.281-.047-2.422-.297-3.407.588-.155 1.181-.302 1.631-.593.522-.187.995-.584.81-1.261zm-3.408 4.075c-.153.859-.615 1.41-1.038 2.001.059.379-.104.538-.073.889a4.319 4.319 0 00-.371 1.037c-.203.267-.332.606-.519.89-.366.548-.777 1.051-1.186 1.557-.378.56-.912.965-1.334 1.481-.42.493-.942.885-1.407 1.334-.474.17-.89.396-1.26.667a5.06 5.06 0 00-.667.296c-.177.146-.499.145-.668.297-1.086.147-2.3.17-3.555.148-1.031-.105-2.115-.159-3.039-.371-.922-.189-1.511-.712-2.297-1.037.153-.242.634-.154.963-.222.031-.166.394-.003.444-.15.257.06.285-.109.52-.073.563-.201 1.23-.302 1.705-.593.282-.138.406-.434.667-.593.033-.189.104-.341.222-.444.047-.275.201-.441.148-.815.111-.21.299-.343.296-.667-.074-.148-.128-.316-.296-.371-.026-.196-.377-.067-.444-.222-.255.032-.416-.029-.593-.075-.154-.043-.487.092-.519-.073-.842-.023-1.3-.43-1.853-.74.431-.262 1.032-.353 1.333-.742.516-.076 1.058-.129 1.112-.666 0-.717-.771-.661-1.333-.816-.773-.66-1.194-1.672-1.779-2.52.238-.157.564-.226.741-.444.454.058.54-.251.667-.52.018-.488-.333-.605-.593-.815a3.495 3.495 0 01-.667-.741c-.003-.818-.022-1.652.074-2.372.063-.014.07.029.074.074.227.441.559.775.815 1.186.532.357.925.853 1.556 1.112.452.413 1.108.621 1.557 1.038.601.263 1.158.57 1.704.889.669.194 1.056.673 2.001.593.198-.098.393-.199.593-.297.258-.456-.059-1.079.147-1.63.255-.659.797-1.031 1.26-1.481.29-.155.555-.335.815-.519.347-.098.675-.216.964-.371a6.223 6.223 0 001.037-.148h1.26c.244.052.475.119.74.148.209.137.38.313.666.371.789.693 1.27 1.696 1.409 3.039-.122.484.053.873.001 1.481zm.296-5.632c-.129.34-.23.707-.593.815-.017-.105-.122-.125-.148-.222-.012-.21.209-.186.296-.296.163-.085.245-.248.445-.297-.007-.089.108-.046 0 0zm-5.484 3.038c.163.135.284.31.519.371.101.221.314.327.594.37.047-.15.346-.049.37-.222.174-.023.166-.229.296-.297-.018-.55-.129-1.006-.37-1.333-.758-.423-1.676.039-1.409 1.111z"/></symbol></svg>